<?xml version="1.0" encoding="UTF-8" standalone="no"?>
<!-- Created with Inkscape (http://www.inkscape.org/) -->

<svg
   xmlns:dc="http://purl.org/dc/elements/1.1/"
   xmlns:cc="http://creativecommons.org/ns#"
   xmlns:rdf="http://www.w3.org/1999/02/22-rdf-syntax-ns#"
   xmlns:svg="http://www.w3.org/2000/svg"
   xmlns="http://www.w3.org/2000/svg"
   xmlns:sodipodi="http://sodipodi.sourceforge.net/DTD/sodipodi-0.dtd"
   xmlns:inkscape="http://www.inkscape.org/namespaces/inkscape"
   width="210mm"
   height="297mm"
   viewBox="0 0 744.09448819 1052.3622047"
   id="svg4233"
   version="1.1"
   inkscape:version="0.91 r13725"
   sodipodi:docname="tree1.svg">
  <defs
     id="defs4235" />
  <sodipodi:namedview
     id="base"
     pagecolor="#ffffff"
     bordercolor="#666666"
     borderopacity="1.0"
     inkscape:pageopacity="0.0"
     inkscape:pageshadow="2"
     inkscape:zoom="3.727833"
     inkscape:cx="222.10255"
     inkscape:cy="821.64612"
     inkscape:document-units="px"
     inkscape:current-layer="layer1"
     showgrid="false"
     inkscape:window-width="1366"
     inkscape:window-height="745"
     inkscape:window-x="-8"
     inkscape:window-y="-8"
     inkscape:window-maximized="1" />
  <metadata
     id="metadata4238">
    <rdf:RDF>
      <cc:Work
         rdf:about="">
        <dc:format>image/svg+xml</dc:format>
        <dc:type
           rdf:resource="http://purl.org/dc/dcmitype/StillImage" />
      </cc:Work>
    </rdf:RDF>
  </metadata>
  <g
     inkscape:label="Layer 1"
     inkscape:groupmode="layer"
     id="layer1">
    <rect
       style="fill:none;fill-opacity:1"
       id="rect4241"
       width="18.182745"
       height="341.43155"
       x="272.74118"
       y="601.83417" />
    <path
       style="fill:#744c4c;fill-opacity:1"
       d="m 218.79109,111.06211 8.78595,-3.38667 70.91944,362.78573 147.63717,-401.51678 8.52036,-0.25925 -21.04846,66.23252 68.70622,-41.8923 2.42717,3.03285 -76.19306,54.78046 -106.01418,333.59132 -12.8898,51.8638 -0.33317,503.45761 -32.7803,0 6.80007,-504.24025 -8.08228,-51.52639 z"
       id="rect4243"
       inkscape:connector-curvature="0"
       sodipodi:nodetypes="cccccccccccccccc" />
    <path
       style="fill:#d0a014;fill-opacity:1"
       d="m 404.40484,239.95942 2.30539,-12.34146 17.34095,-7.38788 -8.96515,19.74952 z"
       id="rect4250"
       inkscape:connector-curvature="0"
       sodipodi:nodetypes="ccccc" />
    <path
       sodipodi:nodetypes="ccccc"
       inkscape:connector-curvature="0"
       id="path4253"
       d="m 402.37244,252.1776 8.37801,-9.35069 18.6563,2.6894 -17.9161,12.22423 z"
       style="fill:#d0a014;fill-opacity:1" />
    <path
       style="fill:#d0a014;fill-opacity:1"
       d="m 420.88017,237.41246 4.09482,-8.57295 14.12062,-2.01608 -10.41021,12.68901 z"
       id="path4255"
       inkscape:connector-curvature="0"
       sodipodi:nodetypes="ccccc" />
    <path
       sodipodi:nodetypes="ccccc"
       inkscape:connector-curvature="0"
       id="path4257"
       d="m 411.98449,220.50887 -1.60048,-7.87168 8.50535,-8.54991 -0.56702,13.86539 z"
       style="fill:#d0a014;fill-opacity:1" />
    <path
       style="fill:#d0a014;fill-opacity:1"
       d="m 429.09494,224.91786 -1.70057,-7.85068 8.39582,-8.65752 -0.39047,13.87148 z"
       id="path4259"
       inkscape:connector-curvature="0"
       sodipodi:nodetypes="ccccc" />
    <path
       style="fill:#d0a014;fill-opacity:1"
       d="m 457.20993,135.11649 5.54261,2.96906 0.90139,9.39687 -8.07079,-7.26996 z"
       id="path4273"
       inkscape:connector-curvature="0"
       sodipodi:nodetypes="ccccc" />
    <path
       sodipodi:nodetypes="ccccc"
       inkscape:connector-curvature="0"
       id="path4263"
       d="m 459.92894,132.17769 8.5493,-5.46851 13.94737,6.13364 -16.59972,5.64142 z"
       style="fill:#d0a014;fill-opacity:1" />
    <path
       style="fill:#d0a014;fill-opacity:1"
       d="m 232.41704,220.25095 -12.49869,-1.18708 -8.91623,-16.60696 17.91923,6.0995 z"
       id="path4261"
       inkscape:connector-curvature="0"
       sodipodi:nodetypes="ccccc"
       inkscape:transform-center-x="1.3412618" />
    <path
       sodipodi:nodetypes="ccccc"
       inkscape:connector-curvature="0"
       id="path4265"
       d="m 228.55714,206.84722 -5.50849,-3.31381 -2.10763,-14.2716 7.38907,8.07358 z"
       style="fill:#d0a014;fill-opacity:1" />
    <path
       style="fill:#d0a014;fill-opacity:1"
       d="m 247.77337,205.91277 0.0444,-4.26743 7.02094,-5.81579 -2.01394,6.89151 z"
       id="path4267"
       inkscape:connector-curvature="0"
       sodipodi:nodetypes="ccccc" />
    <path
       sodipodi:nodetypes="ccccc"
       inkscape:connector-curvature="0"
       id="path4269"
       d="m 248.74342,198.68174 -1.21381,-4.0914 4.99779,-7.6249 0.10402,7.179 z"
       style="fill:#d0a014;fill-opacity:1" />
    <path
       style="fill:#d0a014;fill-opacity:1"
       d="m 254.71887,194.59897 -0.45154,-4.43704 4.9162,-7.08427 -0.81434,7.45489 z"
       id="path4271"
       inkscape:connector-curvature="0"
       sodipodi:nodetypes="ccccc"
       inkscape:transform-center-x="-2.2659308"
       inkscape:transform-center-y="-13.464603" />
  </g>
</svg>
